<mxfile host="app.diagrams.net" agent="Mozilla/5.0 (Macintosh; Intel Mac OS X 10_15_7) AppleWebKit/537.36 (KHTML, like Gecko) Chrome/131.0.0.0 Safari/537.36" version="25.0.3">
  <diagram name="Page-1" id="PbnpgXml-UNsvIrCti7z">
    <mxGraphModel dx="1314" dy="717" grid="1" gridSize="10" guides="1" tooltips="1" connect="1" arrows="1" fold="1" page="1" pageScale="1" pageWidth="850" pageHeight="1100" math="0" shadow="0">
      <root>
        <mxCell id="0" />
        <mxCell id="1" parent="0" />
        <mxCell id="sNUR6b2SdchIss-YffTg-3" value="" style="endArrow=classic;html=1;rounded=0;entryX=0.005;entryY=0.383;entryDx=0;entryDy=0;entryPerimeter=0;exitX=1;exitY=0.75;exitDx=0;exitDy=0;" edge="1" parent="1" source="sNUR6b2SdchIss-YffTg-6">
          <mxGeometry width="50" height="50" relative="1" as="geometry">
            <mxPoint x="300" y="230" as="sourcePoint" />
            <mxPoint x="361.04999999999995" y="269.15" as="targetPoint" />
          </mxGeometry>
        </mxCell>
        <mxCell id="sNUR6b2SdchIss-YffTg-6" value="Data:&lt;div&gt;- Uploaded templates&lt;/div&gt;&lt;div&gt;- Sent documents per seller&lt;br&gt;&lt;div&gt;- User role (isAdmin)&lt;/div&gt;&lt;div&gt;- Plan&lt;/div&gt;&lt;/div&gt;" style="text;html=1;align=left;verticalAlign=middle;whiteSpace=wrap;rounded=0;" vertex="1" parent="1">
          <mxGeometry x="160" y="190" width="150" height="80" as="geometry" />
        </mxCell>
        <mxCell id="sNUR6b2SdchIss-YffTg-7" value="Context:&lt;div&gt;- User id&lt;/div&gt;&lt;div&gt;- Seller id&lt;/div&gt;" style="text;html=1;align=center;verticalAlign=middle;whiteSpace=wrap;rounded=0;" vertex="1" parent="1">
          <mxGeometry x="160" y="130" width="60" height="30" as="geometry" />
        </mxCell>
        <mxCell id="sNUR6b2SdchIss-YffTg-8" value="" style="endArrow=classic;html=1;rounded=0;entryX=0.5;entryY=0;entryDx=0;entryDy=0;" edge="1" parent="1" target="sNUR6b2SdchIss-YffTg-6">
          <mxGeometry width="50" height="50" relative="1" as="geometry">
            <mxPoint x="220" y="170" as="sourcePoint" />
            <mxPoint x="270" y="170" as="targetPoint" />
          </mxGeometry>
        </mxCell>
        <mxCell id="sNUR6b2SdchIss-YffTg-9" value="" style="endArrow=classic;html=1;rounded=0;" edge="1" parent="1">
          <mxGeometry width="50" height="50" relative="1" as="geometry">
            <mxPoint x="570" y="280" as="sourcePoint" />
            <mxPoint x="650" y="280" as="targetPoint" />
          </mxGeometry>
        </mxCell>
        <mxCell id="sNUR6b2SdchIss-YffTg-11" value="Upload modal" style="rounded=1;whiteSpace=wrap;html=1;" vertex="1" parent="1">
          <mxGeometry x="660" y="250" width="120" height="60" as="geometry" />
        </mxCell>
        <mxCell id="sNUR6b2SdchIss-YffTg-17" value="Template actions" style="rounded=1;whiteSpace=wrap;html=1;" vertex="1" parent="1">
          <mxGeometry x="630" y="370" width="120" height="30" as="geometry" />
        </mxCell>
        <mxCell id="sNUR6b2SdchIss-YffTg-19" value="" style="endArrow=none;dashed=1;html=1;dashPattern=1 3;strokeWidth=2;rounded=0;entryX=0.467;entryY=1.06;entryDx=0;entryDy=0;entryPerimeter=0;exitX=0;exitY=0.5;exitDx=0;exitDy=0;" edge="1" parent="1">
          <mxGeometry width="50" height="50" relative="1" as="geometry">
            <mxPoint x="621.9300000000001" y="372" as="sourcePoint" />
            <mxPoint x="540" y="340" as="targetPoint" />
          </mxGeometry>
        </mxCell>
        <mxCell id="sNUR6b2SdchIss-YffTg-22" value="" style="endArrow=classic;html=1;rounded=0;" edge="1" parent="1">
          <mxGeometry width="50" height="50" relative="1" as="geometry">
            <mxPoint x="690" y="400" as="sourcePoint" />
            <mxPoint x="690" y="460" as="targetPoint" />
          </mxGeometry>
        </mxCell>
        <mxCell id="sNUR6b2SdchIss-YffTg-24" value="Send modal" style="rounded=1;whiteSpace=wrap;html=1;" vertex="1" parent="1">
          <mxGeometry x="630" y="459" width="120" height="60" as="geometry" />
        </mxCell>
        <mxCell id="sNUR6b2SdchIss-YffTg-25" value="Admin page" style="swimlane;whiteSpace=wrap;html=1;" vertex="1" parent="1">
          <mxGeometry x="110" y="630" width="820" height="380" as="geometry" />
        </mxCell>
        <mxCell id="sNUR6b2SdchIss-YffTg-33" value="Data:&lt;div&gt;- Uploaded templates&lt;/div&gt;&lt;div&gt;- User role&lt;/div&gt;" style="text;html=1;align=left;verticalAlign=middle;whiteSpace=wrap;rounded=0;" vertex="1" parent="sNUR6b2SdchIss-YffTg-25">
          <mxGeometry x="40" y="50" width="170" height="60" as="geometry" />
        </mxCell>
        <mxCell id="sNUR6b2SdchIss-YffTg-34" value="Upload button" style="rounded=1;whiteSpace=wrap;html=1;" vertex="1" parent="sNUR6b2SdchIss-YffTg-25">
          <mxGeometry x="630" y="70" width="120" height="40" as="geometry" />
        </mxCell>
        <mxCell id="sNUR6b2SdchIss-YffTg-36" value="Templates table" style="swimlane;fontStyle=0;childLayout=stackLayout;horizontal=1;startSize=30;horizontalStack=0;resizeParent=1;resizeParentMax=0;resizeLast=0;collapsible=1;marginBottom=0;whiteSpace=wrap;html=1;" vertex="1" parent="sNUR6b2SdchIss-YffTg-25">
          <mxGeometry x="280" y="130" width="250" height="120" as="geometry" />
        </mxCell>
        <mxCell id="sNUR6b2SdchIss-YffTg-37" value="Item 1" style="text;strokeColor=none;fillColor=none;align=left;verticalAlign=middle;spacingLeft=4;spacingRight=4;overflow=hidden;points=[[0,0.5],[1,0.5]];portConstraint=eastwest;rotatable=0;whiteSpace=wrap;html=1;" vertex="1" parent="sNUR6b2SdchIss-YffTg-36">
          <mxGeometry y="30" width="250" height="30" as="geometry" />
        </mxCell>
        <mxCell id="sNUR6b2SdchIss-YffTg-38" value="Item 2" style="text;strokeColor=none;fillColor=none;align=left;verticalAlign=middle;spacingLeft=4;spacingRight=4;overflow=hidden;points=[[0,0.5],[1,0.5]];portConstraint=eastwest;rotatable=0;whiteSpace=wrap;html=1;" vertex="1" parent="sNUR6b2SdchIss-YffTg-36">
          <mxGeometry y="60" width="250" height="30" as="geometry" />
        </mxCell>
        <mxCell id="sNUR6b2SdchIss-YffTg-39" value="Item 3" style="text;strokeColor=none;fillColor=none;align=left;verticalAlign=middle;spacingLeft=4;spacingRight=4;overflow=hidden;points=[[0,0.5],[1,0.5]];portConstraint=eastwest;rotatable=0;whiteSpace=wrap;html=1;" vertex="1" parent="sNUR6b2SdchIss-YffTg-36">
          <mxGeometry y="90" width="250" height="30" as="geometry" />
        </mxCell>
        <mxCell id="sNUR6b2SdchIss-YffTg-26" value="Legal display docs component" style="swimlane;fontStyle=0;childLayout=stackLayout;horizontal=1;startSize=30;horizontalStack=0;resizeParent=1;resizeParentMax=0;resizeLast=0;collapsible=1;marginBottom=0;whiteSpace=wrap;html=1;" vertex="1" parent="1">
          <mxGeometry x="360" y="240" width="210" height="120" as="geometry" />
        </mxCell>
        <mxCell id="sNUR6b2SdchIss-YffTg-27" value="&lt;span style=&quot;text-align: center;&quot;&gt;Template card&lt;/span&gt;" style="text;strokeColor=none;fillColor=none;align=left;verticalAlign=middle;spacingLeft=4;spacingRight=4;overflow=hidden;points=[[0,0.5],[1,0.5]];portConstraint=eastwest;rotatable=0;whiteSpace=wrap;html=1;" vertex="1" parent="sNUR6b2SdchIss-YffTg-26">
          <mxGeometry y="30" width="210" height="30" as="geometry" />
        </mxCell>
        <mxCell id="sNUR6b2SdchIss-YffTg-28" value="&lt;span style=&quot;text-align: center;&quot;&gt;Template card&lt;/span&gt;" style="text;strokeColor=none;fillColor=none;align=left;verticalAlign=middle;spacingLeft=4;spacingRight=4;overflow=hidden;points=[[0,0.5],[1,0.5]];portConstraint=eastwest;rotatable=0;whiteSpace=wrap;html=1;" vertex="1" parent="sNUR6b2SdchIss-YffTg-26">
          <mxGeometry y="60" width="210" height="30" as="geometry" />
        </mxCell>
        <mxCell id="sNUR6b2SdchIss-YffTg-29" value="&lt;span style=&quot;text-align: center;&quot;&gt;Template card&lt;/span&gt;" style="text;strokeColor=none;fillColor=none;align=left;verticalAlign=middle;spacingLeft=4;spacingRight=4;overflow=hidden;points=[[0,0.5],[1,0.5]];portConstraint=eastwest;rotatable=0;whiteSpace=wrap;html=1;" vertex="1" parent="sNUR6b2SdchIss-YffTg-26">
          <mxGeometry y="90" width="210" height="30" as="geometry" />
        </mxCell>
        <mxCell id="sNUR6b2SdchIss-YffTg-31" value="Legal docs package" style="swimlane;whiteSpace=wrap;html=1;" vertex="1" parent="1">
          <mxGeometry x="110" y="50" width="820" height="520" as="geometry" />
        </mxCell>
      </root>
    </mxGraphModel>
  </diagram>
</mxfile>
